<svg width="25" height="36" viewBox="0 0 25 36" fill="none" xmlns="http://www.w3.org/2000/svg">
    <g clip-path="url(#clip0_35_26)">
        <path d="M12.5 4.52394C12.7072 4.52394 12.9059 4.60337 13.0524 4.74477C13.1989 4.88617 13.2812 5.07795 13.2812 5.27793V8.29388C13.2812 8.49385 13.1989 8.68563 13.0524 8.82703C12.9059 8.96843 12.7072 9.04787 12.5 9.04787C12.2928 9.04787 12.0941 8.96843 11.9476 8.82703C11.8011 8.68563 11.7188 8.49385 11.7188 8.29388V5.27793C11.7188 5.07795 11.8011 4.88617 11.9476 4.74477C12.0941 4.60337 12.2928 4.52394 12.5 4.52394V4.52394ZM18.75 16.5878C18.75 18.1875 18.0915 19.7218 16.9194 20.853C15.7473 21.9842 14.1576 22.6197 12.5 22.6197C10.8424 22.6197 9.25268 21.9842 8.08058 20.853C6.90848 19.7218 6.25 18.1875 6.25 16.5878V7.53989C6.25 5.94013 6.90848 4.40589 8.08058 3.27469C9.25268 2.14348 10.8424 1.50798 12.5 1.50798C14.1576 1.50798 15.7473 2.14348 16.9194 3.27469C18.0915 4.40589 18.75 5.94013 18.75 7.53989V16.5878ZM12.5 0C10.428 0 8.44086 0.794379 6.97573 2.20838C5.5106 3.62239 4.6875 5.54019 4.6875 7.53989V16.5878C4.6875 18.5875 5.5106 20.5053 6.97573 21.9193C8.44086 23.3333 10.428 24.1277 12.5 24.1277C14.572 24.1277 16.5591 23.3333 18.0243 21.9193C19.4894 20.5053 20.3125 18.5875 20.3125 16.5878V7.53989C20.3125 5.54019 19.4894 3.62239 18.0243 2.20838C16.5591 0.794379 14.572 0 12.5 0V0Z" fill="#BEBEBE" />
    </g>
    <g clip-path="url(#clip1_35_26)">
        <path d="M18.5829 28.2265C18.4015 28.0515 18.1555 27.9532 17.899 27.9532C17.6426 27.9532 17.3966 28.0515 17.2152 28.2265L12.4272 32.8474L7.63929 28.2265C7.45686 28.0564 7.21252 27.9624 6.95891 27.9645C6.7053 27.9666 6.4627 28.0648 6.28336 28.2379C6.10402 28.4109 6.0023 28.6451 6.00009 28.8898C5.99789 29.1346 6.09538 29.3704 6.27158 29.5465L11.7434 34.8273C11.9248 35.0024 12.1707 35.1007 12.4272 35.1007C12.6837 35.1007 12.9297 35.0024 13.1111 34.8273L18.5829 29.5465C18.7642 29.3714 18.8661 29.134 18.8661 28.8865C18.8661 28.6389 18.7642 28.4015 18.5829 28.2265V28.2265Z" fill="#BEBEBE" />
    </g>
    <defs>
        <clipPath id="clip0_35_26">
            <rect width="25" height="24.1277" fill="white" />
        </clipPath>
        <clipPath id="clip1_35_26">
            <rect width="15.4762" height="14.9362" fill="white" transform="matrix(-1 0 0 1 20.238 21.0638)" />
        </clipPath>
    </defs>
</svg>
    